:SAMPLES-PER-SECOND 30
:FRAME-RANGE 1-1086
:FULLY-SPECIFIED
:DEGREES
747
root  72.2546 38.9799 -6.73434 -179.262 -22.0121 -177.648
RightUpLeg  -11.0246 -9.71134 -0.509774
RightLeg  22.827 -9.28766 -3.40506
RightFoot  -12.2734 -0.0372604 5.6606
RightToes  -5.8209e-011 0 -3.6325e-017
Spine  7.73825 -1.38984 8.68284
Spine1  1.99819 -1.55397 3.79834
HEad  1.32675 -13.7653 -1.9545
LeftShoulder1  2.33277 -2.48037 -32.9571
LeftArm  13.0669 -17.424 -42.7254
LeftForeArm  11.3014 -4.76134 -17.2697
LeftHand  0.280871 -3.138 -3.5975
RightShoulder  12.1701 17.7485 50.0945
RightArm  8.48164 7.56109 17.0206
RightForeArm  12.1772 1.63228 16.9825
RightHand  0.321676 3.61219 3.89252
LeftUpLeg  -23.8845 20.8537 7.55414
LeftLeg  45.004 -2.50708 -2.28942
LeftFoot  -6.89153 0.363818 -8.29275
LeftToes  5.72949e-011 5.22586e-011 2.45399e-011
748
root  71.5524 39.1429 -7.35647 -178.887 -21.5264 -178.078
RightUpLeg  -8.75532 -9.28293 -1.97945
RightLeg  20.5455 -9.09358 -2.65186
RightFoot  -12.1916 -0.0348748 6.45531
RightToes  -5.8209e-011 0 -3.6325e-017
Spine  7.38643 -1.16648 7.93183
Spine1  1.64072 -1.3847 3.43453
HEad  0.886388 -12.7072 -1.92917
LeftShoulder1  2.28892 -2.36037 -33.0056
LeftArm  11.0684 -15.0116 -40.0775
LeftForeArm  10.3284 -1.75983 -18.1804
LeftHand  0.295992 -2.72663 -4.03034
RightShoulder  11.9538 17.4171 49.9887
RightArm  11.5975 7.06794 17.2182
RightForeArm  10.749 3.09188 16.9289
RightHand  0.344876 3.7734 4.10583
LeftUpLeg  -22.8708 19.5801 9.10364
LeftLeg  35.6963 -3.12665 -2.06096
LeftFoot  -5.96996 0.42734 -8.33825
LeftToes  5.72949e-011 5.22586e-011 2.45399e-011
749
root  70.8191 39.2452 -7.96293 -178.597 -20.8262 -178.145
RightUpLeg  -6.65605 -8.67753 -3.0225
RightLeg  18.3397 -8.90956 -2.14369
RightFoot  -12.0561 -0.036115 7.33815
RightToes  -5.8209e-011 0 -3.6325e-017
Spine  6.97113 -0.99992 7.24376
Spine1  1.49456 -1.2766 3.12704
HEad  0.174033 -11.6638 -1.827
LeftShoulder1  2.23677 -2.23202 -32.9685
LeftArm  10.6724 -12.0912 -37.4179
LeftForeArm  7.74631 0.205338 -18.7598
LeftHand  0.317327 -2.34769 -4.58147
RightShoulder  11.7995 17.1827 49.9054
RightArm  13.3585 6.69941 17.2147
RightForeArm  10.2133 4.06042 16.7827
RightHand  0.363835 3.97018 4.24028
LeftUpLeg  -21.172 18.8259 11.006
LeftLeg  25.4774 -3.87705 -1.68681
LeftFoot  -4.43365 0.58252 -9.19824
LeftToes  5.72949e-011 5.22586e-011 2.45399e-011
750
root  70.0421 39.2958 -8.55113 -178.416 -20.0053 -178.044
RightUpLeg  -4.65119 -8.40797 -3.95021
RightLeg  16.2847 -8.26585 -1.69234
RightFoot  -11.9656 -0.0362732 8.26519
RightToes  -5.8209e-011 0 -3.6325e-017
Spine  6.42583 -0.867173 6.57388
Spine1  1.68495 -1.16153 2.68105
HEad  -0.48109 -10.8309 -1.63277
LeftShoulder1  2.20379 -2.15139 -32.9406
LeftArm  12.5041 -8.97756 -34.9541
LeftForeArm  3.51613 1.12864 -19.2881
LeftHand  0.327727 -2.08185 -4.93071
RightShoulder  11.6022 16.9041 49.7447
RightArm  13.6638 6.35224 17.084
RightForeArm  9.82723 4.5196 16.6535
RightHand  0.323475 3.82983 3.80766
LeftUpLeg  -19.087 18.0902 12.9252
LeftLeg  15.7542 -4.71344 -1.189
LeftFoot  -3.03936 0.738006 -9.90071
LeftToes  5.72949e-011 5.22586e-011 2.45399e-011
751
root  69.1817 39.2499 -9.12205 -178.464 -19.1355 -177.705
RightUpLeg  -2.85275 -8.16738 -4.72741
RightLeg  14.9559 -7.51179 -1.56469
RightFoot  -12.1689 -0.0146687 9.41506
RightToes  -5.8209e-011 0 -3.6325e-017
Spine  6.05294 -0.773409 5.95969
Spine1  1.8434 -1.08061 2.44434
HEad  -0.757709 -10.2638 -1.40252
LeftShoulder1  2.18384 -2.12784 -32.7498
LeftArm  11.5529 -5.71806 -32.8317
LeftForeArm  2.8873 1.14367 -19.3171
LeftHand  0.329922 -1.71563 -5.25652
RightShoulder  11.3806 16.6113 49.5088
RightArm  13.0116 5.86931 16.664
RightForeArm  9.84993 4.72416 16.5146
RightHand  0.348128 3.94082 4.06067
LeftUpLeg  -17.085 15.4575 15.4072
LeftLeg  8.83585 -2.40835 -0.908021
LeftFoot  -2.39906 0.78386 -9.82394
LeftToes  5.72949e-011 5.22586e-011 2.45399e-011
752
root  68.2372 39.1027 -9.66147 -178.466 -18.4113 -177.242
RightUpLeg  -1.61158 -7.86827 -5.46383
RightLeg  14.586 -6.76668 -1.77016
RightFoot  -12.7483 0.0475534 10.9119
RightToes  -5.8209e-011 0 -3.6325e-017
Spine  5.72053 -0.79101 5.13945
Spine1  1.89117 -1.1757 2.54033
HEad  -0.978828 -10.0756 -0.946539
LeftShoulder1  2.13226 -2.06745 -32.2444
LeftArm  10.2937 -2.53687 -31.3632
LeftForeArm  2.95059 1.34168 -19.2913
LeftHand  0.319664 -1.3951 -5.36205
RightShoulder  11.0639 16.1893 49.1663
RightArm  11.1549 5.65402 16.1411
RightForeArm  10.5673 4.23253 16.4888
RightHand  0.344333 3.84481 4.06214
LeftUpLeg  -16.5233 15.2723 16.6882
LeftLeg  6.22999 0.128822 -0.758124
LeftFoot  -0.880008 1.07988 -11.7081
LeftToes  5.72949e-011 5.22586e-011 2.45399e-011
753
root  67.1738 38.8111 -10.1475 -178.45 -17.9315 -176.866
RightUpLeg  -1.14613 -7.05568 -6.42337
RightLeg  15.8745 -6.51859 -2.41353
RightFoot  -13.9548 0.203574 13.0418
RightToes  -5.8209e-011 0 -3.6325e-017
Spine  5.64375 -0.856815 4.16683
Spine1  1.81598 -1.38152 3.03159
HEad  -1.34133 -10.6058 -0.337298
LeftShoulder1  2.09085 -2.00901 -31.8979
LeftArm  10.1431 -0.345983 -30.278
LeftForeArm  2.46249 1.21722 -19.3285
LeftHand  0.320915 -1.23068 -5.53475
RightShoulder  10.6378 15.5616 48.8349
RightArm  9.63512 5.52911 15.2312
RightForeArm  11.0086 4.12523 16.3776
RightHand  0.36567 3.98762 4.25383
LeftUpLeg  -17.41 17.2779 16.5038
LeftLeg  8.82503 -0.249777 -0.937061
LeftFoot  3.32715 1.93817 -15.143
LeftToes  5.72949e-011 5.22586e-011 2.45399e-011
754
root  66.0645 38.501 -10.5491 -178.378 -17.6652 -177.113
RightUpLeg  -1.22301 -4.63632 -8.07848
RightLeg  18.4348 -7.75574 -3.31352
RightFoot  -14.9145 0.398986 15.9594
RightToes  -5.8209e-011 0 -3.6325e-017
Spine  6.29976 -0.846088 2.66905
Spine1  1.51919 -1.48588 3.39863
HEad  -2.33596 -12.1845 0.64248
LeftShoulder1  2.09141 -2.03522 -31.7284
LeftArm  10.898 0.561653 -29.5733
LeftForeArm  1.68019 0.833636 -19.4034
LeftHand  0.301351 -0.887536 -5.51327
RightShoulder  10.1991 14.8473 48.6495
RightArm  7.3525 5.20046 14.0341
RightForeArm  11.2182 4.20483 16.1303
RightHand  0.350726 3.84277 4.14343
LeftUpLeg  -20.1693 21.5109 13.9465
LeftLeg  15.4949 -5.36999 -1.52712
LeftFoot  3.31001 1.58318 -12.4334
LeftToes  5.72949e-011 5.22586e-011 2.45399e-011
755
root  64.952 38.2274 -10.8845 -178.191 -17.7412 -177.977
RightUpLeg  -2.15547 -1.95114 -10.5412
RightLeg  22.7426 -9.00283 -4.33652
RightFoot  -14.9183 0.537046 20.2701
RightToes  -5.8209e-011 0 -3.6325e-017
Spine  7.13565 -0.882736 0.959483
Spine1  1.63198 -1.58801 3.27715
HEad  -3.67491 -14.5666 2.07674
LeftShoulder1  2.1295 -2.12217 -31.823
LeftArm  12.0872 -0.190969 -29.148
LeftForeArm  1.43519 0.324812 -19.452
LeftHand  0.280708 -0.782358 -5.22964
RightShoulder  9.86799 14.1955 48.8109
RightArm  3.19448 5.09101 12.7785
RightForeArm  12.3372 3.27148 15.9575
RightHand  0.323763 3.70353 3.87339
LeftUpLeg  -22.2818 20.9576 11.9159
LeftLeg  21.9994 -5.09356 -1.93419
LeftFoot  -0.174426 1.07041 -10.9152
LeftToes  5.72949e-011 5.22586e-011 2.45399e-011
756
root  63.8965 38.0667 -11.1579 -177.969 -17.2185 -179.083
RightUpLeg  -4.52873 -0.857421 -13.3722
RightLeg  28.7927 -8.46067 -5.23346
RightFoot  -13.0971 0.27884 23.7376
RightToes  -5.8209e-011 0 -3.6325e-017
Spine  8.26062 -0.852078 -0.22059
Spine1  1.88205 -1.29529 1.25017
HEad  -4.86357 -17.0811 3.00218
LeftShoulder1  2.18273 -2.24331 -31.9531
LeftArm  13.9881 -1.28305 -29.1627
LeftForeArm  0.562646 -0.254296 -19.5158
LeftHand  0.262789 -0.846305 -4.83375
RightShoulder  9.81719 14.1895 48.5747
RightArm  -1.9183 4.494 12.0731
RightForeArm  13.9235 1.44647 15.704
RightHand  0.301565 3.59085 3.64376
LeftUpLeg  -22.8993 20.4477 9.82684
LeftLeg  25.9894 -4.16307 -1.86896
LeftFoot  -3.30608 0.713384 -9.85798
LeftToes  5.72949e-011 5.22586e-011 2.45399e-011
757
root  62.8948 37.9446 -11.3918 -177.442 -15.8953 -179.868
RightUpLeg  -9.53839 0.0170964 -15.5211
RightLeg  37.3631 -8.77367 -7.37996
RightFoot  -8.40527 -0.681206 23.9941
RightToes  -5.8209e-011 0 -3.6325e-017
Spine  9.62636 -0.604122 -1.31558
Spine1  1.29355 -0.887181 -0.310317
HEad  -4.82142 -19.094 3.06887
LeftShoulder1  2.22236 -2.27936 -32.4023
LeftArm  15.6393 -2.3263 -29.2871
LeftForeArm  -0.65965 -0.642664 -19.5772
LeftHand  0.257419 -1.00016 -4.60242
RightShoulder  9.80318 14.3763 47.9904
RightArm  -4.93384 4.30412 12.0413
RightForeArm  14.4009 -0.487377 15.5935
RightHand  0.311923 3.50286 3.82138
LeftUpLeg  -23.4333 20.6098 7.96197
LeftLeg  29.0527 -3.06561 -1.49167
LeftFoot  -6.11534 0.450051 -9.0464
LeftToes  5.72949e-011 5.22586e-011 2.45399e-011
